{"title":"Raiders.Of.The.Lost.Ark.1981.HQTV.720p.x264.AC3.[FrOnkY]","uid":9744075,"size":4589564251,"categoryP":"video","categoryS":"hd___movies","magnet":"?xt=urn:btih:b0d5751fc79878f51779dbbb8462ccedb36c5639&amp;dn=Raiders.Of.The.Lost.Ark.1981.HQTV.720p.x264.AC3.%5BFrOnkY%5D&amp;tr=udp%3A%2F%2Ftracker.openbittorrent.com%3A80&amp;tr=udp%3A%2F%2Fopen.demonii.com%3A1337&amp;tr=udp%3A%2F%2Ftracker.coppersurfer.tk%3A6969&amp;tr=udp%3A%2F%2Fexodus.desync.com%3A6969","seeders":1,"leechers":0,"uploader":"HDmEntEs","files":-1,"time":1394556838,"description":"Indy - the new hero from the creators of JAWS and STAR WARS\n\n\nRaiders.Of.The.Lost.Ark.(En.Busca.Del.Arca.Perdida).1981.HQTV.720p.x264.AC3.[FrOnkY].mkv\n\nFormat                                   : Matroska\nFormat version                           : Version 2\nFile size                                : 4.27 GiB\nDuration                                 : 1h 55mn\nOverall bit rate                         : 5 309 Kbps\nWriting application                      : mkvmerge v5.4.0 ('Piper') built on Mar 10 2012 13:34:39\nWriting library                          : libebml v1.2.3 + libmatroska v1.3.0\nAttachment                               : Yes / Yes / Yes\n\nVideo\nID                                       : 1\nFormat                                   : AVC\nFormat/Info                              : Advanced Video Codec\nFormat profile                           : &lt;a class=&quot;__cf_email__&quot; href=&quot;/cdn-cgi/l/email-protection&quot; data-cfemail=&quot;b0f8d9d7d8f0fc849e81&quot;&gt;[email&amp;#160;protected]&lt;/a&gt;&lt;script cf-hash='f9e31' type=&quot;text/javascript&quot;&gt;\n/* &lt;![CDATA[ */!function(){try{var t=&quot;currentScript&quot;in document?document.currentScript:function(){for(var t=document.getElementsByTagName(&quot;script&quot;),e=t.length;e--;)if(t[e].getAttribute(&quot;cf-hash&quot;))return t[e]}();if(t&amp;&amp;t.previousSibling){var e,r,n,i,c=t.previousSibling,a=c.getAttribute(&quot;data-cfemail&quot;);if(a){for(e=&quot;&quot;,r=parseInt(a.substr(0,2),16),n=2;a.length-n;n+=2)i=parseInt(a.substr(n,2),16)^r,e+=String.fromCharCode(i);e=document.createTextNode(e),c.parentNode.replaceChild(e,c)}}}catch(u){}}();/* ]]&gt; */&lt;/script&gt;\nFormat settings, CABAC                   : Yes\nFormat settings, ReFrames                : 12 frames\nCodec ID                                 : V_MPEG4/ISO/AVC\nDuration                                 : 1h 55mn\nBit rate                                 : 4 444 Kbps\nWidth                                    : 1 280 pixels\nHeight                                   : 544 pixels\nDisplay aspect ratio                     : 2.35:1\nFrame rate mode                          : Constant\nFrame rate                               : 23.976 fps\nColor space                              : YUV\nChroma subsampling                       : 4:2:0\nBit depth                                : 8 bits\nScan type                                : Progressive\nBits/(Pixel*Frame)                       : 0.266\nStream size                              : 3.49 GiB (82%)\nWriting library                          : x264 core 125 r2208 d9d2288\nLanguage                                 : English\nDefault                                  : Yes\nForced                                   : No\n\nAudio #1\nID                                       : 2\nFormat                                   : AC-3\nFormat/Info                              : Audio Coding 3\nFormat profile                           : Dolby Digital\nMode extension                           : CM (complete main)\nFormat settings, Endianness              : Big\nCodec ID                                 : A_AC3\nDuration                                 : 1h 55mn\nBit rate mode                            : Constant\nBit rate                                 : 224 Kbps\nChannel(s)                               : 2 channels\nChannel positions                        : Front: L R\nSampling rate                            : 48.0 KHz\nBit depth                                : 16 bits\nStream size                              : 185 MiB (4%)\nLanguage                                 : Spanish\nDefault                                  : Yes\nForced                                   : No\n\nAudio #2\nID                                       : 3\nFormat                                   : AC-3\nFormat/Info                              : Audio Coding 3\nMode extension                           : CM (complete main)\nFormat settings, Endianness              : Big\nCodec ID                                 : A_AC3\nDuration                                 : 1h 55mn\nBit rate mode                            : Constant\nBit rate                                 : 640 Kbps\nChannel(s)                               : 6 channels\nChannel positions                        : Front: L C R, Side: L R, LFE\nSampling rate                            : 48.0 KHz\nBit depth                                : 16 bits\nStream size                              : 528 MiB (12%)\nLanguage                                 : English\nDefault                                  : No\nForced                                   : No\n\nText #1\nID                                       : 4\nFormat                                   : UTF-8\nCodec ID                                 : S_TEXT/UTF8\nCodec ID/Info                            : UTF-8 Plain Text\nTitle                                    : for\nLanguage                                 : Spanish\nDefault                                  : Yes\nForced                                   : No\n\nText #2\nID                                       : 5\nFormat                                   : UTF-8\nCodec ID                                 : S_TEXT/UTF8\nCodec ID/Info                            : UTF-8 Plain Text\nLanguage                                 : Spanish\nDefault                                  : No\nForced                                   : No\n\nText #3\nID                                       : 6\nFormat                                   : UTF-8\nCodec ID                                 : S_TEXT/UTF8\nCodec ID/Info                            : UTF-8 Plain Text\nLanguage                                 : English\nDefault                                  : No\nForced                                   : No\n\nMenu\n00:00:00.000                             : en:Chapter 01\n00:03:13.429                             : en:Chapter 02\n00:05:41.535                             : en:Chapter 03\n00:09:48.032                             : en:Chapter 04\n00:12:46.251                             : en:Chapter 05\n00:15:20.531                             : en:Chapter 06\n00:20:24.334                             : en:Chapter 07\n00:22:55.318                             : en:Chapter 08\n00:28:48.254                             : en:Chapter 09\n00:33:39.295                             : en:Chapter 10\n00:36:20.289                             : en:Chapter 11\n00:40:01.719                             : en:Chapter 12\n00:42:13.058                             : en:Chapter 13\n00:46:38.407                             : en:Chapter 14\n00:49:29.828                             : en:Chapter 15\n00:50:57.832                             : en:Chapter 16\n00:55:08.041                             : en:Chapter 17\n00:58:30.118                             : en:Chapter 18\n01:03:02.640                             : en:Chapter 19\n01:08:23.043                             : en:Chapter 20\n01:10:22.246                             : en:Chapter 21\n01:15:30.053                             : en:Chapter 22\n01:22:21.256                             : en:Chapter 23\n01:25:40.663                             : en:Chapter 24\n01:29:54.417                             : en:Chapter 25\n01:34:27.565                             : en:Chapter 26\n01:38:03.071                             : en:Chapter 27\n01:41:02.960                             : en:Chapter 28\n01:44:03.723                             : en:Chapter 29\n01:46:58.315                             : en:Chapter 30\n01:49:02.897                             : en:Chapter 31\n01:55:15.520                             : en:Chapter 32\n\n\nBluRay - HQTV\n &lt;a href=&quot;\nhttp://box.jisko.net/i/f06736ed.png&quot; rel=&quot;nofollow&quot; target=&quot;_NEW&quot;&gt;\nhttp://box.jisko.net/i/f06736ed.png&lt;/a&gt; &lt;a href=&quot;\nhttp://box.jisko.net/i/8404f1ee.png&quot; rel=&quot;nofollow&quot; target=&quot;_NEW&quot;&gt;\nhttp://box.jisko.net/i/8404f1ee.png&lt;/a&gt;\n &lt;a href=&quot;\nhttp://box.jisko.net/i/6e473f02.png&quot; rel=&quot;nofollow&quot; target=&quot;_NEW&quot;&gt;\nhttp://box.jisko.net/i/6e473f02.png&lt;/a&gt; &lt;a href=&quot;\nhttp://box.jisko.net/i/f050bb8c.png&quot; rel=&quot;nofollow&quot; target=&quot;_NEW&quot;&gt;\nhttp://box.jisko.net/i/f050bb8c.png&lt;/a&gt;\n &lt;a href=&quot;\nhttp://box.jisko.net/i/b8e8ba0b.png&quot; rel=&quot;nofollow&quot; target=&quot;_NEW&quot;&gt;\nhttp://box.jisko.net/i/b8e8ba0b.png&lt;/a&gt; &lt;a href=&quot;\nhttp://box.jisko.net/i/247d03d6.png&quot; rel=&quot;nofollow&quot; target=&quot;_NEW&quot;&gt;\nhttp://box.jisko.net/i/247d03d6.png&lt;/a&gt;\n &lt;a href=&quot;\nhttp://box.jisko.net/i/5d1ce0b2.png&quot; rel=&quot;nofollow&quot; target=&quot;_NEW&quot;&gt;\nhttp://box.jisko.net/i/5d1ce0b2.png&lt;/a&gt; &lt;a href=&quot;\nhttp://box.jisko.net/i/4aeedab7.png&quot; rel=&quot;nofollow&quot; target=&quot;_NEW&quot;&gt;\nhttp://box.jisko.net/i/4aeedab7.png&lt;/a&gt;","torrent":{"xt":"urn:btih:b0d5751fc79878f51779dbbb8462ccedb36c5639","amp;dn":"Raiders.Of.The.Lost.Ark.1981.HQTV.720p.x264.AC3.%5BFrOnkY%5D","amp;tr":["udp%3A%2F%2Ftracker.openbittorrent.com%3A80","udp%3A%2F%2Fopen.demonii.com%3A1337","udp%3A%2F%2Ftracker.coppersurfer.tk%3A6969","udp%3A%2F%2Fexodus.desync.com%3A6969"],"infoHash":"b0d5751fc79878f51779dbbb8462ccedb36c5639","infoHashBuffer":{"type":"Buffer","data":[176,213,117,31,199,152,120,245,23,121,219,187,132,98,204,237,179,108,86,57]},"announce":[],"urlList":[]}}